<svg width="500" height="500" viewBox="0 0 500 500" fill="none" xmlns="http://www.w3.org/2000/svg">
<path d="M335.7 409.7H165.1C124.3 409.7 91 376.5 91 335.6V165.1C91 124.3 124.2 91 165.1 91H335.7C376.5 91 409.8 124.2 409.8 165.1V335.7C409.8 376.5 376.6 409.7 335.7 409.7Z" fill="#EFF2F4"/>
<path d="M299.7 295.5C302.6 291.5 308.1 288.6 315 287.3L304.2 250.4H166.2L152.5 298.7H298C298.4 297.5 299 296.5 299.7 295.5Z" fill="#F7C6CC"/>
<path d="M298.7 307H150.2L141.3 338.2H329.9L324.4 319.4C312.3 318.8 302.1 313.9 298.7 307Z" fill="#F7C6CC"/>
<path d="M157.6 250.4H124.4C124.3 250.4 124.3 250.4 124.2 250.4L101.1 298.7H143.8L157.6 250.4Z" fill="#F7C6CC"/>
<path d="M141.5 307H97.2002L82.2002 338.2H132.6L141.5 307Z" fill="#F7C6CC"/>
<path d="M346.5 365.1H412.8C422.9 365.1 430 355.8 428.2 346.5H341L346.5 365.1Z" fill="#F7C6CC"/>
<path d="M78.8 346.5C77 355.8 84.1 365.1 94.2 365.1H125L130.3 346.5H78.8Z" fill="#F7C6CC"/>
<path d="M378.8 242.1L371.6 227C369 221.6 363.5 218.1 357.5 218.1H303.6L310.6 242.1H378.8Z" fill="#F7C6CC"/>
<path d="M138.9 346.5L133.6 365.1H337.8L332.3 346.5H138.9Z" fill="#F7C6CC"/>
<path d="M301.8 242.1L294.8 218.1H175.5L168.6 242.1H301.8Z" fill="#F7C6CC"/>
<path d="M166.8 218.1H149.6C143.6 218.1 138.1 221.6 135.5 227L128.3 242.1H160L166.8 218.1Z" fill="#F7C6CC"/>
<path d="M350.5 310.5C347.3 314.9 340.9 318 333 319.1L338.6 338.3H424.8L409.9 307H352.3C351.9 308.2 351.3 309.4 350.5 310.5Z" fill="#F7C6CC"/>
<path d="M323.5 286.5C336.4 286.5 347.6 291.5 351.3 298.6H405.8L382.7 250.3H313L323.5 286.5Z" fill="#F7C6CC"/>
<path d="M337.8 365.1H346.5L341.1 346.5H428.3L424.9 338.2H338.7L333 319C340.9 317.9 347.3 314.9 350.5 310.4C351.3 309.3 351.9 308.1 352.2 306.9H409.8L405.8 298.6H351.3C347.5 291.4 336.3 286.5 323.5 286.5L313 250.4H382.8L378.8 242.1H310.5L303.5 218.1H294.8L301.8 242.1H168.6L175.4 218.1H166.7L159.9 242.1H128.1L124.1 250.4C124.2 250.4 124.2 250.4 124.3 250.4H157.5L143.8 298.7H101.1L97.0998 307H141.5L132.6 338.2H82.1998L78.7998 346.5H130.3L125 365.1H133.7L139 346.5H332.4L337.8 365.1L339.3 370.4L337.8 365.1ZM345 303C345.2 303.7 345.3 304.7 344.4 306C342.6 308.4 337.4 311.4 328.6 311.8C316.5 312.3 306.6 307.5 305.2 302.9C305 302.2 304.9 301.2 305.8 299.9C307.6 297.5 312.8 294.5 321.6 294.1C322.2 294.1 322.8 294.1 323.4 294.1C334.7 294.1 343.7 298.6 345 303ZM166.3 250.4H304.3L315.1 287.3C308.2 288.6 302.7 291.5 299.8 295.5C299.1 296.5 298.5 297.6 298.2 298.7H152.6L166.3 250.4ZM141.3 338.2L150.2 307H298.7C302.1 313.9 312.3 318.8 324.4 319.4L329.9 338.2H141.3Z" fill="#EFF2F4"/>
<path d="M323.4 294.1C322.8 294.1 322.2 294.1 321.6 294.1C312.7 294.5 307.6 297.5 305.8 299.9C304.8 301.2 305 302.3 305.2 302.9C306.5 307.5 316.5 312.3 328.6 311.8C337.5 311.4 342.6 308.4 344.4 306C345.4 304.7 345.2 303.6 345 303C343.7 298.6 334.7 294.1 323.4 294.1Z" fill="#F7C6CC"/>
<path d="M262.511 241.761C263.988 232.657 257.806 224.079 248.701 222.601C239.597 221.123 231.019 227.306 229.542 236.41C228.064 245.514 234.247 254.093 243.351 255.57C252.455 257.048 261.033 250.865 262.511 241.761Z" fill="#FF2B85"/>
<path d="M278.8 169.1C283.4 165.9 289.2 161.4 294.3 155.2C309.3 137 306.8 119.8 301 107.7C294.7 94.5002 273.9 81.1002 246.3 83.0002C207.4 85.7002 192.9 114.8 193.4 131.3C193.6 138.8 199 144.7 206.4 145.3C213.9 145.8 221.2 141.1 221.8 133.7C221.9 132.8 224.9 112 248.2 110C262.4 108.8 271.1 114.5 273.7 119.6C273.7 119.6 279.3 129.9 272 138.6C268.7 142.5 266 144.7 262.1 147.8L251.7 156.4C229.8 178.6 233.8 200.7 233.8 200.7C234.5 208.4 239.9 214.2 247.3 214.2C254.7 214.2 260.8 208.1 260.8 200.7V196.4C261.3 190.7 262.3 184.4 268.3 177.8C268.4 177.8 275.8 171.2 278.8 169.1Z" fill="#FF2B85"/>
</svg>
